# xmcd
#
# Track frame offsets:
#	150
#	18810
#	33663
#	49911
#	67574
#	85852
#	102024
#	120396
#	141485
#	160257
#	176787
#	198074
#	214602
#
# Disc length: 3110 seconds
#
# Revision: 0
# Processed by: cddbd v1.4PL0 Copyright (c) Steve Scherf et al.
# Submitted via: dBpowerAMP V4.0
#
DISCID=a40c240d
DTITLE=LUIS FONSI - AMOR SECRETO
DYEAR=1900
DGENRE=
TTITLE0=QUISIERA PODER OLVIDARME DE TI
TTITLE1=FUERA DE CONTROL
TTITLE2=AMOR SECRETO
TTITLE3=ENTREGATE
TTITLE4=TE VAS
TTITLE5=TIENES QUE PARAR
TTITLE6=Y AHORA COMO TE OLVIDO
TTITLE7=TU PUEDES SALVARME
TTITLE8=DISELO YA
TTITLE9=IRRESISTIBLE
TTITLE10=ME LO DIJO EL SILENCIO
TTITLE11=PARA VIVIR
TTITLE12=QUISIERA PODER OLVIDARME DE TI (DANCE RADIO EDIT)
EXTD=
EXTT0=
EXTT1=
EXTT2=
EXTT3=
EXTT4=
EXTT5=
EXTT6=
EXTT7=
EXTT8=
EXTT9=
EXTT10=
EXTT11=
EXTT12=
PLAYORDER=
